<svg xmlns="http://www.w3.org/2000/svg" viewBox="0 0 64 64" role="img" aria-labelledby="title desc">
  <title id="title">Fenosys emblem</title>
  <desc id="desc">Abstract circular emblem with stylised F in light orange hues</desc>
  <defs>
    <radialGradient id="fenosysGlow" cx="50%" cy="42%" r="60%">
      <stop offset="0%" stop-color="#FFE4C2" />
      <stop offset="55%" stop-color="#FFB55C" />
      <stop offset="100%" stop-color="#D55B0B" />
    </radialGradient>
    <linearGradient id="fenosysAccent" x1="12%" x2="88%" y1="20%" y2="84%">
      <stop offset="0%" stop-color="#FFF3E2" />
      <stop offset="48%" stop-color="#FFA94D" />
      <stop offset="100%" stop-color="#EB6712" />
    </linearGradient>
  </defs>
  <circle cx="32" cy="32" r="30" fill="url(#fenosysGlow)" opacity="0.9" />
  <path
    fill="url(#fenosysAccent)"
    d="M43.2 13.6H24.4a4.8 4.8 0 0 0-4.8 4.8v16.2c0 4 2.2 6.4 6 6.4h11.2c1.2 0 2 .8 2 1.8 0 1-1 1.8-2.2 1.8H24.2c-1.6 0-2.4.8-2.4 2.4 0 1.6.8 2.4 2.4 2.4H37c6.6 0 10.6-3.6 10.6-9.4 0-5.2-3.2-8.6-7.8-9l-11.8-.8c-1-.2-1.8-1-1.8-2.2 0-1.4.8-2.2 2-2.2h14.6c1.4 0 2.2-.8 2.2-2.2 0-1.2-.8-2-2.8-2Zm-8.2 17.2c2.4.2 4 1.8 4 4 0 2-1.6 3.4-4 3.4h-9.8c-1.6 0-2.4-.8-2.4-2.6 0-1.6.8-2.6 2.4-2.6Z"
  />
</svg>
